<svg width="128" height="128" viewBox="0 0 128 128" xmlns="http://www.w3.org/2000/svg">
  <!-- Background circle -->
  <circle cx="64" cy="64" r="64" fill="#3B82F6"/>
  
  <!-- Main flashcard stack -->
  <rect x="24" y="32" width="56" height="40" rx="4" fill="#FFFFFF" opacity="0.9"/>
  <rect x="28" y="36" width="56" height="40" rx="4" fill="#FFFFFF" opacity="0.95"/>
  <rect x="32" y="40" width="56" height="40" rx="4" fill="#FFFFFF"/>
  
  <!-- DSA symbol - binary tree icon -->
  <g transform="translate(44, 48)">
    <!-- Root node -->
    <circle cx="16" cy="8" r="3" fill="#3B82F6"/>
    
    <!-- Left subtree -->
    <circle cx="8" cy="20" r="2.5" fill="#10B981"/>
    <line x1="14" y1="10" x2="10" y2="18" stroke="#6B7280" stroke-width="1.5"/>
    
    <!-- Right subtree -->
    <circle cx="24" cy="20" r="2.5" fill="#10B981"/>
    <line x1="18" y1="10" x2="22" y2="18" stroke="#6B7280" stroke-width="1.5"/>
    
    <!-- Leaf nodes -->
    <circle cx="4" cy="28" r="2" fill="#F59E0B"/>
    <circle cx="12" cy="28" r="2" fill="#F59E0B"/>
    <line x1="6.5" y1="22" x2="5.5" y2="26" stroke="#6B7280" stroke-width="1"/>
    <line x1="9.5" y1="22" x2="10.5" y2="26" stroke="#6B7280" stroke-width="1"/>
  </g>
  
  <!-- Memory/brain icon in corner -->
  <g transform="translate(84, 84)">
    <path d="M8 4C8 1.8 9.8 0 12 0s4 1.8 4 4c2.2 0 4 1.8 4 4s-1.8 4-4 4c0 2.2-1.8 4-4 4s-4-1.8-4-4c-2.2 0-4-1.8-4-4s1.8-4 4-4z" 
          fill="#FFFFFF" opacity="0.8" transform="scale(0.8)"/>
    <!-- Small dots for memory -->
    <circle cx="6" cy="6" r="1" fill="#3B82F6"/>
    <circle cx="10" cy="6" r="1" fill="#3B82F6"/>
    <circle cx="8" cy="8" r="1" fill="#3B82F6"/>
  </g>
  
  <!-- Subtle gradient overlay -->
  <defs>
    <linearGradient id="overlay" x1="0%" y1="0%" x2="100%" y2="100%">
      <stop offset="0%" style="stop-color:#FFFFFF;stop-opacity:0.1"/>
      <stop offset="100%" style="stop-color:#000000;stop-opacity:0.05"/>
    </linearGradient>
  </defs>
  <circle cx="64" cy="64" r="64" fill="url(#overlay)"/>
</svg>